<svg width="14" height="14" viewBox="0 0 14 14" fill="none" xmlns="http://www.w3.org/2000/svg">
<path d="M5 7.5L6.5 9L9 5.5M13 7C13 7.84552 12.5803 8.593 11.9378 9.04545C12.0721 9.81959 11.8403 10.6448 11.2425 11.2426C10.6447 11.8404 9.81948 12.0722 9.04534 11.9379C8.59289 12.5803 7.84546 13 7 13C6.15457 13 5.40715 12.5803 4.95469 11.938C4.18044 12.0724 3.35504 11.8407 2.75714 11.2428C2.15924 10.6449 1.9275 9.81947 2.06191 9.04522C1.4196 8.59276 1 7.84538 1 7C1 6.15458 1.41964 5.40718 2.06198 4.95472C1.92765 4.18053 2.1594 3.35522 2.75725 2.75738C3.3551 2.15953 4.18042 1.92777 4.95463 2.06212C5.40707 1.4197 6.15452 1 7 1C7.84544 1 8.59287 1.41967 9.04532 2.06204C9.81957 1.92763 10.645 2.15937 11.2429 2.75727C11.8408 3.35516 12.0725 4.18054 11.9381 4.95478C12.5804 5.40725 13 6.15462 13 7Z" stroke="#72D524" stroke-linecap="round" stroke-linejoin="round"/>
</svg>
