<svg width="2" height="10" viewBox="0 0 2 10" fill="none" xmlns="http://www.w3.org/2000/svg">
<path fill-rule="evenodd" clip-rule="evenodd" d="M0 1C2.98023e-08 0.447715 0.447715 0 1 0C1.55228 2.98023e-08 2 0.447715 2 1C2 1.55228 1.55228 2 1 2C0.447715 2 0 1.55228 0 1ZM0 5C2.98023e-08 4.44772 0.447715 4 1 4C1.55228 4 2 4.44772 2 5C2 5.55228 1.55228 6 1 6C0.447715 6 0 5.55228 0 5ZM0 9C2.98023e-08 8.44772 0.447715 8 1 8C1.55228 8 2 8.44772 2 9C2 9.55229 1.55228 10 1 10C0.447715 10 0 9.55229 0 9Z" fill="#FAFAFA"/>
</svg>
